<svg width="89" height="25" viewBox="0 0 89 25" fill="none" xmlns="http://www.w3.org/2000/svg">
<g opacity="0.25">
<path fill-rule="evenodd" clip-rule="evenodd" d="M26.7282 6.09082L23.7584 0H29.698V21.3177C29.698 22.9927 28.3615 24.3631 26.7282 24.3631H15.6111L21.5273 20.8603C22.0581 20.5458 22.3849 19.9651 22.3849 19.3358C22.3849 18.707 22.0582 18.1263 21.5273 17.8118L9.9213 10.9419C9.65552 10.7845 9.35977 10.7065 9.06302 10.7065C8.76644 10.7065 8.47069 10.7847 8.20525 10.9421C7.67385 11.2562 7.34714 11.8372 7.34714 12.4664V24.3631H2.96979C1.33641 24.3631 0 22.9927 0 21.3177V3.04539C0 1.37042 1.33641 0 2.96979 0H4.45469L7.42448 6.09082H11.8792L8.90939 0H11.8792L14.849 6.09082H19.3037L16.3339 0H19.3037L22.2735 6.09082H26.7282Z" fill="white"/>
<path d="M49.569 11.6753L47.9229 0.734619H45.6061L42.7102 7.45533L39.8143 0.734619H37.5129L35.8363 11.6753H38.1835L39.2352 4.54824L42.4206 11.6597H42.9846L46.1701 4.54824L47.2217 11.6753H49.569Z" fill="white"/>
<path d="M54.2298 11.9255C56.7751 11.9255 58.6803 10.003 58.6803 7.4554C58.6803 4.90779 56.7751 3.00098 54.2298 3.00098C51.6844 3.00098 49.7792 4.90779 49.7792 7.4554C49.7792 10.003 51.6844 11.9255 54.2298 11.9255ZM54.2298 9.76856C52.9495 9.76856 52.035 8.83079 52.035 7.4554C52.035 6.09564 52.9495 5.14222 54.2298 5.14222C55.5101 5.14222 56.4246 6.09564 56.4246 7.4554C56.4246 8.83079 55.5101 9.76856 54.2298 9.76856Z" fill="white"/>
<path d="M63.4105 11.9255C65.9558 11.9255 67.861 10.003 67.861 7.4554C67.861 4.90779 65.9558 3.00098 63.4105 3.00098C60.8651 3.00098 58.96 4.90779 58.96 7.4554C58.96 10.003 60.8651 11.9255 63.4105 11.9255ZM63.4105 9.76856C62.1302 9.76856 61.2157 8.83079 61.2157 7.4554C61.2157 6.09564 62.1302 5.14222 63.4105 5.14222C64.6908 5.14222 65.6053 6.09564 65.6053 7.4554C65.6053 8.83079 64.6908 9.76856 63.4105 9.76856Z" fill="white"/>
<path d="M73.7871 3.23535L71.8056 8.89326L69.7938 3.23535H67.4161L70.7692 11.6753H72.8268L76.0885 3.23535H73.7871Z" fill="white"/>
<path d="M76.5304 2.10998H78.7404V0H76.5304V2.10998ZM76.5304 11.6753H78.7557V3.23531H76.5304V11.6753Z" fill="white"/>
<path d="M88.1011 7.43977C88.1011 5.00155 86.3636 3.00098 83.8335 3.00098C81.3949 3.00098 79.5659 4.92342 79.5659 7.4554C79.5659 9.98739 81.4101 11.9255 83.8335 11.9255C85.7539 11.9255 87.3238 10.7532 87.9182 8.90894H85.5863C85.251 9.51849 84.6108 9.8936 83.8335 9.8936C82.7514 9.8936 82.0198 9.2528 81.8216 8.09622H88.0554C88.0859 7.8774 88.1011 7.65859 88.1011 7.43977H88.1011ZM83.8335 4.95466C84.8395 4.95466 85.5558 5.51733 85.8759 6.54888H81.8826C82.1417 5.5486 82.8428 4.95466 83.8335 4.95466Z" fill="white"/>
<path d="M43.8534 13.1724H35.6077V15.3761H38.5798V24.113H40.8812V15.3761H43.8534V13.1724Z" fill="white"/>
<path d="M44.3743 14.5477H46.5843V12.4377H44.3743V14.5477ZM44.3743 24.113H46.5995V15.6731H44.3743V24.113Z" fill="white"/>
<path d="M57.3167 15.4856C56.265 15.4856 55.3353 16.017 54.7713 16.8297C54.2836 15.9857 53.4301 15.4856 52.3784 15.4856C51.403 15.4856 50.5037 15.9701 49.9245 16.7203L49.513 15.6731H47.9584V24.1131H50.1836V19.5493C50.1836 18.2364 50.7781 17.4862 51.784 17.4862C52.5766 17.4862 53.0033 18.0801 53.0033 19.2054V24.1131H55.1676V19.5493C55.1676 18.2364 55.7621 17.4862 56.7528 17.4862C57.5606 17.4862 57.9873 18.0801 57.9873 19.2054V24.1131H60.2126V18.8303C60.2126 16.8453 59.0237 15.4856 57.3167 15.4856Z" fill="white"/>
<path d="M69.4719 19.8775C69.4719 17.4393 67.7344 15.4387 65.2043 15.4387C62.7656 15.4387 60.9366 17.3611 60.9366 19.8931C60.9366 22.4251 62.7809 24.3632 65.2043 24.3632C67.1247 24.3632 68.6946 23.191 69.289 21.3467H66.9571C66.6217 21.9562 65.9816 22.3313 65.2043 22.3313C64.1221 22.3313 63.3905 21.6905 63.1924 20.5339H69.4262C69.4567 20.3151 69.4718 20.0963 69.4718 19.8775H69.4719ZM65.2043 17.3924C66.2102 17.3924 66.9266 17.9551 67.2466 18.9866H63.2533C63.5124 17.9863 64.2136 17.3924 65.2043 17.3924Z" fill="white"/>
</g>
</svg>
